HIERARCHY
ROOT Hips
{
	OFFSET 0.00000 0.00000 0.00000
	CHANNELS 6 Xposition Yposition Zposition Zrotation Yrotation Xrotation 
	JOINT LHipJoint
	{
		OFFSET 0 0 0
		CHANNELS 3 Zrotation Yrotation Xrotation
		JOINT LeftHip
		{
			OFFSET 1.59715 -1.91394 0.36268
			CHANNELS 3 Zrotation Yrotation Xrotation
			JOINT LeftKnee
			{
				OFFSET 2.53886 -6.97546 0.00000
				CHANNELS 3 Zrotation Yrotation Xrotation
				JOINT LeftAnkle
				{
					OFFSET 2.77084 -7.61284 0.00000
					CHANNELS 3 Zrotation Yrotation Xrotation
					JOINT LeftToe
					{
						OFFSET 0.19855 -0.54550 2.06057
						CHANNELS 3 Zrotation Yrotation Xrotation
						End Site
						{
							OFFSET 0.00000 -0.00000 1.07182
						}
					}
				}
			}
		}
	}
	JOINT RHipJoint
	{
		OFFSET 0 0 0
		CHANNELS 3 Zrotation Yrotation Xrotation
		JOINT RightHip
		{
			OFFSET -1.71086 -1.91394 0.36268
			CHANNELS 3 Zrotation Yrotation Xrotation
			JOINT RightKnee
			{
				OFFSET -2.59448 -7.12828 0.00000
				CHANNELS 3 Zrotation Yrotation Xrotation
				JOINT RightAnkle
				{
					OFFSET -2.80237 -7.69945 0.00000
					CHANNELS 3 Zrotation Yrotation Xrotation
					JOINT RightToe
					{
						OFFSET -0.18280 -0.50224 2.06614
						CHANNELS 3 Zrotation Yrotation Xrotation
						End Site
						{
							OFFSET -0.00000 -0.00000 1.07055
						}
					}
				}
			}
		}
	}
	JOINT lowerback
	{
		OFFSET 0 0 0
		CHANNELS 3 Zrotation Yrotation Xrotation
		JOINT Chest
		{
			OFFSET 0.04838 1.91536 -0.09733
			CHANNELS 3 Zrotation Yrotation Xrotation
			JOINT Chest2
			{
				OFFSET 0.04097 1.92183 -0.02751
				CHANNELS 3 Zrotation Yrotation Xrotation
				JOINT lowerneck
				{
					OFFSET 0 0 0
					CHANNELS 3 Zrotation Yrotation Xrotation
					JOINT Neck
					{
						OFFSET 0.18766 3.12816 0.13727
						CHANNELS 3 Zrotation Yrotation Xrotation
						JOINT Head
						{
							OFFSET -0.11178 3.16074 0.02732
							CHANNELS 3 Zrotation Yrotation Xrotation
							End Site
							{
								OFFSET 0.47685 1.04189 0.57898
							}
						}
					}
				}
				JOINT LeftCollar
				{
					OFFSET 0 0 0
					CHANNELS 3 Zrotation Yrotation Xrotation
					JOINT LeftShoulder
					{
						OFFSET 3.49325 0.99827 -0.10681
CHANNELS 3 Zrotation Xrotation Yrotation
						JOINT LeftElbow
						{
OFFSET 0 -5.128420 0.000000
CHANNELS 3 Zrotation Xrotation Yrotation
							JOINT LeftWrist
							{
OFFSET 0 -3.473960 0.000000
CHANNELS 3 Zrotation Xrotation Yrotation
								JOINT lhand
								{
									OFFSET 0 0 0
CHANNELS 3 Zrotation Xrotation Yrotation
									JOINT LFingers
									{
OFFSET 0 -0.728610 0.000000
CHANNELS 3 Zrotation Xrotation Yrotation
										End Site
										{
OFFSET 0 -0.587420 0.000000
										}
									}
								}
								JOINT LThumb
								{
OFFSET 0 0.000000 0.000000
CHANNELS 3 Zrotation Xrotation Yrotation
									End Site
									{
OFFSET 0 -0.596390 0.596390
									}
								}
							}
						}
					}
				}
				JOINT RightCollar
				{
					OFFSET 0 0 0
					CHANNELS 3 Zrotation Yrotation Xrotation
					JOINT RightShoulder
					{
						OFFSET -3.23261 1.50670 -0.18692
CHANNELS 3 Zrotation Xrotation Yrotation
						JOINT RightElbow
						{
OFFSET 0 -5.484770 -0.000000
CHANNELS 3 Zrotation Xrotation Yrotation
							JOINT RightWrist
							{
OFFSET 0 -3.478560 0.000000
CHANNELS 3 Zrotation Xrotation Yrotation
								JOINT rhand
								{
									OFFSET 0 0 0
CHANNELS 3 Zrotation Xrotation Yrotation
									JOINT RFingers
									{
OFFSET 0 -0.709970 0.000000
CHANNELS 3 Zrotation Xrotation Yrotation
										End Site
										{
OFFSET 0 -0.572400 0.000000
										}
									}
								}
								JOINT RThumb
								{
OFFSET 0 0.000000 0.000000
CHANNELS 3 Zrotation Xrotation Yrotation
									End Site
									{
OFFSET 0 -0.581140 0.581140
									}
								}
							}
						}
					}
				}
			}
		}
	}
}
MOTION
Frames: 9
Frame Time: 0.008333333333333333
9.186991 17.694264 0.346393 36.589470 -86.032762 -752.198896 0.000000 0.000000 0.000000 -23.705691 -15.287962 -26.377835 4.214098 12.439633 37.306129 0.355000 2.081292 -12.212003 0.020880 0.932953 2.564449 0.000000 0.000000 0.000000 17.884979 -1.428395 -29.760184 -15.335549 -19.466754 76.243102 0.621908 -14.086990 -8.254325 -3.653536 -11.684057 34.623863 -2.962043 1.301383 9.933085 0.762044 1.402501 1.341069 2.273945 0.728872 -4.263602 -4.096214 0.079502 -10.359311 -5.427164 1.700360 31.784175 -1.198885 -0.783151 12.236797 0.000000 0.000000 0.000000 -2.546423 5.493792 23.973750 16.838578 -26.644429 4.014748 10.805187 15.958577 -30.364840 0.000000 0.000000 0.000000 -7.125000 0.000000 0.000000 -23.337533 59.242026 8.402670 0.000000 0.000000 0.000000 -6.072792 -0.233870 14.234084 -20.675381 -31.447457 -5.879674 -31.839932 -16.964914 -15.767385 0.000000 0.000000 0.000000 7.125000 0.000000 0.000000 -2.749785 11.610738 -2.142578
8.568612 17.785093 0.530435 -20.420149 -86.928282 -696.660482 0.000000 0.000000 0.000000 -21.283687 -16.104199 -22.415339 4.450101 12.736414 38.389650 0.439243 4.738497 -15.159827 0.047890 1.405348 3.864876 0.000000 0.000000 0.000000 17.467036 5.923717 -51.686155 -23.674801 -19.671872 100.801453 -0.428554 -4.742035 -15.020323 -1.275648 -7.155412 20.177769 -0.101522 1.293170 13.160300 1.432182 1.690373 2.089450 1.269730 0.805424 -5.223387 -4.201849 0.242926 -9.360557 -6.066478 2.011393 32.060661 -1.390172 -0.755754 12.159591 0.000000 0.000000 0.000000 -2.097283 3.817408 18.904120 19.501847 -30.036774 5.280095 10.959094 16.035480 -29.919923 0.000000 0.000000 0.000000 -7.125000 0.000000 0.000000 -22.831627 58.871158 8.003035 0.000000 0.000000 0.000000 -6.299253 0.802598 11.891601 -20.109320 -30.773822 -5.587212 -32.202094 -16.630811 -14.411277 0.000000 0.000000 0.000000 7.125000 0.000000 0.000000 -3.159997 13.106511 -2.364108
8.002601 17.939638 0.550022 -23.622296 -83.985644 -693.761806 0.000000 0.000000 0.000000 -20.506015 -15.320363 -18.925763 4.001644 12.162613 36.309575 0.602133 2.776405 -15.927466 0.062278 1.610322 4.429863 0.000000 0.000000 0.000000 15.588868 9.670831 -71.427228 -25.574380 -19.238014 106.499719 -0.942553 0.814123 -18.095491 -0.482548 -4.454462 12.358927 -0.141604 0.376883 14.844623 1.967189 0.454751 2.940740 2.073974 0.177667 -5.221441 -3.813383 0.738761 -8.175512 -6.377045 2.556372 33.049105 -1.538729 -0.561475 12.335054 0.000000 0.000000 0.000000 0.375689 3.670988 13.294968 24.957101 -36.159889 8.264662 11.294128 14.299052 -29.458781 0.000000 0.000000 0.000000 -7.125000 0.000000 0.000000 -22.139745 58.522582 7.557965 0.000000 0.000000 0.000000 -6.397645 0.861449 11.282333 -20.453422 -31.184850 -5.764303 -30.395593 -17.630065 -17.980579 0.000000 0.000000 0.000000 7.125000 0.000000 0.000000 -1.524267 9.366280 -1.256335
7.393326 18.041369 0.533982 -27.165905 -82.146188 -690.604477 0.000000 0.000000 0.000000 -19.615785 -13.534049 -15.754383 3.643691 11.670512 34.576027 0.731842 1.967518 -16.988307 0.030542 -1.121425 -3.082965 0.000000 0.000000 0.000000 15.001284 12.355398 -76.543285 -21.541428 -19.942169 94.511082 -0.637223 -0.679453 -15.341040 -0.327796 -3.665434 10.138744 -0.378115 0.259773 16.152863 2.280543 0.237741 3.613421 2.588522 0.053088 -5.211914 -4.412482 1.118787 -7.138843 -5.487488 2.799162 34.290956 -1.099814 -0.483303 12.618711 0.000000 0.000000 0.000000 2.780136 4.524629 11.371536 31.241606 -41.932194 12.231680 13.286695 10.948841 -29.586412 0.000000 0.000000 0.000000 -7.125000 0.000000 0.000000 -20.173604 59.085267 7.123836 0.000000 0.000000 0.000000 -6.256796 1.546480 11.000861 -20.202507 -30.885493 -5.634926 -31.686044 -16.541064 -16.125589 0.000000 0.000000 0.000000 7.125000 0.000000 0.000000 -2.602792 11.228963 -2.048130
6.765594 18.041967 0.457632 -24.179497 -80.724382 -692.571878 0.000000 0.000000 0.000000 -19.115248 -13.759645 -14.314859 3.561509 11.552784 34.167643 0.906213 2.126237 -18.869897 0.165543 -2.619878 -7.222219 0.000000 0.000000 0.000000 14.883462 13.174476 -73.612317 -18.254431 -19.926707 84.890187 -0.018834 -4.326366 -6.847587 -2.194869 -9.260791 26.614439 -1.393979 0.008424 16.056459 2.370947 -0.247873 3.576420 3.360868 -0.169003 -5.171241 -5.792673 1.587098 -6.287940 -5.095049 3.486245 34.621798 -0.636667 -0.328921 12.571566 0.000000 0.000000 0.000000 3.033370 4.942163 13.908232 33.212756 -43.492946 13.568303 16.672023 11.576989 -30.109362 0.000000 0.000000 0.000000 -7.125000 0.000000 0.000000 -16.962475 60.363783 6.465272 0.000000 0.000000 0.000000 -6.285146 2.208634 11.951554 -20.102638 -30.765799 -5.583758 -33.032361 -15.523845 -15.095127 0.000000 0.000000 0.000000 7.125000 0.000000 0.000000 -3.624140 12.172072 -2.784286
6.160943 17.995174 0.361005 -19.648224 -79.885949 -693.720311 0.000000 0.000000 0.000000 -18.242718 -14.533812 -16.133862 3.674277 11.713934 34.727283 1.220345 0.633545 -21.121728 0.058141 -1.555555 -4.278899 0.000000 0.000000 0.000000 15.804198 13.901777 -70.970119 -17.179742 -19.808145 81.728830 -0.457093 -1.333620 -13.317917 -2.585084 -9.988366 28.941395 -1.670502 -0.121448 15.579299 1.858508 -0.433261 2.650414 3.012866 -0.215387 -5.886108 -5.604081 1.666881 -6.498185 -4.708723 3.495588 34.774645 -0.518423 -0.252798 12.667636 0.000000 0.000000 0.000000 2.611181 4.593769 15.627348 31.906468 -42.472468 12.677600 15.549740 12.986198 -31.579284 0.000000 0.000000 0.000000 -7.125000 0.000000 0.000000 -19.308131 61.484566 7.912918 0.000000 0.000000 0.000000 -5.931433 2.665768 12.553988 -20.737293 -31.520332 -5.911976 -32.829382 -18.558530 -16.342873 0.000000 0.000000 0.000000 7.125000 0.000000 0.000000 -3.322858 10.767265 -2.648631
5.585522 17.984483 0.228074 -19.928965 -80.076610 -690.314800 0.000000 0.000000 0.000000 -17.201462 -14.924723 -17.373375 3.620926 11.638121 34.463618 1.290892 2.020121 -22.278561 0.212594 -2.951360 -8.144587 0.000000 0.000000 0.000000 17.005759 15.597762 -71.050249 -16.975654 -19.779270 81.126173 -0.946778 -2.918431 -19.653232 -2.060380 -8.990705 25.766224 -1.076410 -0.243711 15.892615 1.616083 -0.520072 2.776720 2.438088 -0.274143 -5.924786 -5.062564 1.577648 -7.451150 -4.934877 3.495872 33.448761 -0.659058 -0.117743 12.315790 0.000000 0.000000 0.000000 2.118208 3.376897 11.401247 31.496955 -42.142431 12.401968 15.094300 11.429017 -31.150443 0.000000 0.000000 0.000000 -7.125000 0.000000 0.000000 -19.453485 60.971514 7.737179 0.000000 0.000000 0.000000 -6.554869 -0.293956 13.809107 -20.904397 -31.716578 -5.999610 -31.660132 -17.838098 -16.474592 0.000000 0.000000 0.000000 7.125000 0.000000 0.000000 -2.540997 10.835336 -2.020020
4.867769 18.138113 0.061115 -20.829268 -80.049141 -687.363801 0.000000 0.000000 0.000000 -16.194103 -13.809609 -17.920962 3.753200 11.824480 35.113949 1.091596 1.286767 -20.244122 0.189163 -2.756112 -7.602916 0.000000 0.000000 0.000000 18.840930 15.817916 -69.666944 -16.832747 -19.757741 80.703597 -1.337070 -1.619688 -22.486716 -2.487405 -9.814495 28.378562 -0.298094 -0.736861 15.941517 2.358417 -0.992845 2.653946 2.887313 -0.513631 -6.058216 -4.883525 1.591316 -8.724745 -5.361137 3.749923 33.324879 -0.812289 -0.038099 12.551420 0.000000 0.000000 0.000000 0.963692 2.530363 8.548253 30.900767 -41.653011 12.003801 13.633701 12.552309 -29.042995 0.000000 0.000000 0.000000 -7.125000 0.000000 0.000000 -19.422693 58.653672 6.643067 0.000000 0.000000 0.000000 -7.870353 -1.781679 14.217971 -22.922637 -34.004102 -7.094977 -31.886460 -17.382096 -16.072487 0.000000 0.000000 0.000000 7.125000 0.000000 0.000000 -2.741373 11.253301 -2.156230
3.940970 18.828151 -0.134538 -25.299367 -80.654581 -682.650863 0.000000 0.000000 0.000000 -13.650068 -13.768805 -18.135372 4.251971 12.488243 37.481959 0.064692 -2.459783 -4.485149 0.904062 -6.058776 -16.955099 0.000000 0.000000 0.000000 22.451055 15.723703 -61.741616 -14.669212 -19.304162 74.237963 -1.365446 -1.781106 -22.785258 -3.498288 -11.460735 33.850302 1.466814 -0.583315 15.211208 3.258903 -0.461288 2.431148 2.722829 -0.286899 -5.928839 -5.269734 1.428072 -9.034213 -5.899127 3.785515 33.658962 -0.957837 -0.165342 12.779697 0.000000 0.000000 0.000000 0.408651 3.194767 7.698626 30.052228 -40.938089 11.443830 13.726529 13.849106 -28.022767 0.000000 0.000000 0.000000 -7.125000 0.000000 0.000000 -18.634923 57.710683 5.935142 0.000000 0.000000 0.000000 -8.440689 -1.789199 13.711493 -22.304277 -33.319248 -6.752285 -31.837720 -17.351575 -15.972064 0.000000 0.000000 0.000000 7.125000 0.000000 0.000000 -2.722187 11.376951 -2.134206
